<svg width="104" height="105" viewBox="0 0 104 105" fill="none" xmlns="http://www.w3.org/2000/svg">
<path d="M9.83735 2C5.49588 2 2 5.19521 2 9.16465V96.0374C2 100.007 5.49655 103.272 9.83735 103.202L30.3122 102.874C33.0044 102.831 35.7025 102.689 38.3928 102.477C47.7374 98.8869 56.3022 93.5942 63.3245 86.9088C68.9271 81.575 73.5688 75.3993 77.0062 68.7051C79.7598 72.2534 83.5409 75.1288 87.8581 76.9585C92.0802 78.748 96.8039 79.519 101.444 79.2058C101.572 78.8211 101.662 78.4435 101.664 78.0822L102 9.16465C102.019 5.19525 98.504 2 94.1626 2H9.83735Z" stroke="#E2E8F0" stroke-width="3.45069"/>
<path d="M101.444 79.2058C96.8037 79.5189 92.08 78.7479 87.8579 76.9585C83.5408 75.1287 79.7596 72.2533 77.006 68.7051C73.5686 75.3993 68.9269 81.575 63.3243 86.9088C56.302 93.5942 47.7372 98.8869 38.3926 102.477C69.2207 100.054 98.7759 87.2536 101.444 79.2058Z" stroke="#E2E8F0" stroke-width="3.45069"/>
<mask id="path-3-inside-1_39_230" fill="white">
<path d="M39.1589 14.7383H10.0608C9.66953 14.7383 9.35229 15.0283 9.35229 15.386V17.4385C9.35229 17.7963 9.66953 18.0863 10.0608 18.0863H39.1589C39.5501 18.0863 39.8673 17.7963 39.8673 17.4385V15.386C39.8673 15.0283 39.5501 14.7383 39.1589 14.7383Z"/>
</mask>
<path d="M39.1589 14.7383H10.0608C9.66953 14.7383 9.35229 15.0283 9.35229 15.386V17.4385C9.35229 17.7963 9.66953 18.0863 10.0608 18.0863H39.1589C39.5501 18.0863 39.8673 17.7963 39.8673 17.4385V15.386C39.8673 15.0283 39.5501 14.7383 39.1589 14.7383Z" fill="#2D3F81"/>
<path d="M10.0608 18.691H39.1589V10.7856H10.0608V18.691ZM39.1589 18.691C37.7077 18.691 35.9146 17.5369 35.9146 15.386H43.82C43.82 12.5197 41.3926 10.7856 39.1589 10.7856V18.691ZM35.9146 15.386V17.4385H43.82V15.386H35.9146ZM35.9146 17.4385C35.9146 15.2877 37.7076 14.1336 39.1589 14.1336V22.039C41.3926 22.039 43.82 20.3049 43.82 17.4385H35.9146ZM39.1589 14.1336H10.0608V22.039H39.1589V14.1336ZM10.0608 14.1336C11.5115 14.1336 13.305 15.2872 13.305 17.4385H5.39961C5.39961 20.3054 7.82756 22.039 10.0608 22.039V14.1336ZM13.305 17.4385V15.386H5.39961V17.4385H13.305ZM13.305 15.386C13.305 17.5374 11.5115 18.691 10.0608 18.691V10.7856C7.82756 10.7856 5.39961 12.5192 5.39961 15.386H13.305Z" fill="#E2E8F0" mask="url(#path-3-inside-1_39_230)"/>
<mask id="path-5-inside-2_39_230" fill="white">
<path d="M89.65 26.1492H10.0608C9.66953 26.1492 9.35229 26.4392 9.35229 26.7969V28.8494C9.35229 29.2072 9.66953 29.4972 10.0608 29.4972H89.65C90.0413 29.4972 90.3585 29.2072 90.3585 28.8494V26.7969C90.3585 26.4392 90.0413 26.1492 89.65 26.1492Z"/>
</mask>
<path d="M89.65 26.1492H10.0608C9.66953 26.1492 9.35229 26.4392 9.35229 26.7969V28.8494C9.35229 29.2072 9.66953 29.4972 10.0608 29.4972H89.65C90.0413 29.4972 90.3585 29.2072 90.3585 28.8494V26.7969C90.3585 26.4392 90.0413 26.1492 89.65 26.1492Z" fill="#2D3F81"/>
<path d="M10.0608 30.1019H89.65V22.1965H10.0608V30.1019ZM89.65 30.1019C88.1988 30.1019 86.4058 28.9478 86.4058 26.7969H94.3111C94.3111 23.9306 91.8838 22.1965 89.65 22.1965V30.1019ZM86.4058 26.7969V28.8494H94.3111V26.7969H86.4058ZM86.4058 28.8494C86.4058 26.6986 88.1988 25.5445 89.65 25.5445V33.4499C91.8838 33.4499 94.3111 31.7158 94.3111 28.8494H86.4058ZM89.65 25.5445H10.0608V33.4499H89.65V25.5445ZM10.0608 25.5445C11.5115 25.5445 13.305 26.6981 13.305 28.8494H5.39961C5.39961 31.7163 7.82756 33.4499 10.0608 33.4499V25.5445ZM13.305 28.8494V26.7969H5.39961V28.8494H13.305ZM13.305 26.7969C13.305 28.9483 11.5115 30.1019 10.0608 30.1019V22.1965C7.82756 22.1965 5.39961 23.9301 5.39961 26.7969H13.305Z" fill="#E2E8F0" mask="url(#path-5-inside-2_39_230)"/>
<mask id="path-7-inside-3_39_230" fill="white">
<path d="M89.65 37.5601H10.0608C9.66953 37.5601 9.35229 37.8501 9.35229 38.2078V40.2603C9.35229 40.6181 9.66953 40.9081 10.0608 40.9081H89.65C90.0413 40.9081 90.3585 40.6181 90.3585 40.2603V38.2078C90.3585 37.8501 90.0413 37.5601 89.65 37.5601Z"/>
</mask>
<path d="M89.65 37.5601H10.0608C9.66953 37.5601 9.35229 37.8501 9.35229 38.2078V40.2603C9.35229 40.6181 9.66953 40.9081 10.0608 40.9081H89.65C90.0413 40.9081 90.3585 40.6181 90.3585 40.2603V38.2078C90.3585 37.8501 90.0413 37.5601 89.65 37.5601Z" fill="#2D3F81"/>
<path d="M10.0608 41.5127H89.65V33.6074H10.0608V41.5127ZM89.65 41.5127C88.1988 41.5127 86.4058 40.3587 86.4058 38.2078H94.3111C94.3111 35.3415 91.8838 33.6074 89.65 33.6074V41.5127ZM86.4058 38.2078V40.2603H94.3111V38.2078H86.4058ZM86.4058 40.2603C86.4058 38.1094 88.1988 36.9554 89.65 36.9554V44.8608C91.8838 44.8608 94.3111 43.1267 94.3111 40.2603H86.4058ZM89.65 36.9554H10.0608V44.8608H89.65V36.9554ZM10.0608 36.9554C11.5115 36.9554 13.305 38.1089 13.305 40.2603H5.39961C5.39961 43.1272 7.82756 44.8608 10.0608 44.8608V36.9554ZM13.305 40.2603V38.2078H5.39961V40.2603H13.305ZM13.305 38.2078C13.305 40.3592 11.5115 41.5127 10.0608 41.5127V33.6074C7.82756 33.6074 5.39961 35.341 5.39961 38.2078H13.305Z" fill="#E2E8F0" mask="url(#path-7-inside-3_39_230)"/>
<mask id="path-9-inside-4_39_230" fill="white">
<path d="M89.65 48.9707H10.0608C9.66953 48.9707 9.35229 49.2607 9.35229 49.6185V51.671C9.35229 52.0287 9.66953 52.3187 10.0608 52.3187H89.65C90.0413 52.3187 90.3585 52.0287 90.3585 51.671V49.6185C90.3585 49.2607 90.0413 48.9707 89.65 48.9707Z"/>
</mask>
<path d="M89.65 48.9707H10.0608C9.66953 48.9707 9.35229 49.2607 9.35229 49.6185V51.671C9.35229 52.0287 9.66953 52.3187 10.0608 52.3187H89.65C90.0413 52.3187 90.3585 52.0287 90.3585 51.671V49.6185C90.3585 49.2607 90.0413 48.9707 89.65 48.9707Z" fill="#2D3F81"/>
<path d="M10.0608 52.9234H89.65V45.018H10.0608V52.9234ZM89.65 52.9234C88.1988 52.9234 86.4058 51.7693 86.4058 49.6185H94.3111C94.3111 46.7521 91.8838 45.018 89.65 45.018V52.9234ZM86.4058 49.6185V51.671H94.3111V49.6185H86.4058ZM86.4058 51.671C86.4058 49.5201 88.1988 48.366 89.65 48.366V56.2714C91.8838 56.2714 94.3111 54.5373 94.3111 51.671H86.4058ZM89.65 48.366H10.0608V56.2714H89.65V48.366ZM10.0608 48.366C11.5115 48.366 13.305 49.5196 13.305 51.671H5.39961C5.39961 54.5378 7.82756 56.2714 10.0608 56.2714V48.366ZM13.305 51.671V49.6185H5.39961V51.671H13.305ZM13.305 49.6185C13.305 51.7698 11.5115 52.9234 10.0608 52.9234V45.018C7.82756 45.018 5.39961 46.7516 5.39961 49.6185H13.305Z" fill="#E2E8F0" mask="url(#path-9-inside-4_39_230)"/>
<mask id="path-11-inside-5_39_230" fill="white">
<path d="M89.65 60.3816H10.0608C9.66953 60.3816 9.35229 60.6716 9.35229 61.0294V63.0818C9.35229 63.4396 9.66953 63.7296 10.0608 63.7296H89.65C90.0413 63.7296 90.3585 63.4396 90.3585 63.0818V61.0294C90.3585 60.6716 90.0413 60.3816 89.65 60.3816Z"/>
</mask>
<path d="M89.65 60.3816H10.0608C9.66953 60.3816 9.35229 60.6716 9.35229 61.0294V63.0818C9.35229 63.4396 9.66953 63.7296 10.0608 63.7296H89.65C90.0413 63.7296 90.3585 63.4396 90.3585 63.0818V61.0294C90.3585 60.6716 90.0413 60.3816 89.65 60.3816Z" fill="#2D3F81"/>
<path d="M10.0608 64.3343H89.65V56.4289H10.0608V64.3343ZM89.65 64.3343C88.1988 64.3343 86.4058 63.1802 86.4058 61.0294H94.3111C94.3111 58.163 91.8838 56.4289 89.65 56.4289V64.3343ZM86.4058 61.0294V63.0818H94.3111V61.0294H86.4058ZM86.4058 63.0818C86.4058 60.931 88.1988 59.7769 89.65 59.7769V67.6823C91.8838 67.6823 94.3111 65.9482 94.3111 63.0818H86.4058ZM89.65 59.7769H10.0608V67.6823H89.65V59.7769ZM10.0608 59.7769C11.5115 59.7769 13.305 60.9305 13.305 63.0818H5.39961C5.39961 65.9487 7.82756 67.6823 10.0608 67.6823V59.7769ZM13.305 63.0818V61.0294H5.39961V63.0818H13.305ZM13.305 61.0294C13.305 63.1807 11.5115 64.3343 10.0608 64.3343V56.4289C7.82756 56.4289 5.39961 58.1625 5.39961 61.0294H13.305Z" fill="#E2E8F0" mask="url(#path-11-inside-5_39_230)"/>
<mask id="path-13-inside-6_39_230" fill="white">
<path d="M64.1886 71.7925H10.0608C9.66953 71.7925 9.35229 72.0825 9.35229 72.4402V74.4927C9.35229 74.8505 9.66953 75.1405 10.0608 75.1405H64.1886C64.5799 75.1405 64.8971 74.8505 64.8971 74.4927V72.4402C64.8971 72.0825 64.5799 71.7925 64.1886 71.7925Z"/>
</mask>
<path d="M64.1886 71.7925H10.0608C9.66953 71.7925 9.35229 72.0825 9.35229 72.4402V74.4927C9.35229 74.8505 9.66953 75.1405 10.0608 75.1405H64.1886C64.5799 75.1405 64.8971 74.8505 64.8971 74.4927V72.4402C64.8971 72.0825 64.5799 71.7925 64.1886 71.7925Z" fill="#2D3F81"/>
<path d="M10.0608 75.7452H64.1886V67.8398H10.0608V75.7452ZM64.1886 75.7452C62.7374 75.7452 60.9444 74.5911 60.9444 72.4402H68.8497C68.8497 69.5739 66.4224 67.8398 64.1886 67.8398V75.7452ZM60.9444 72.4402V74.4927H68.8497V72.4402H60.9444ZM60.9444 74.4927C60.9444 72.3418 62.7374 71.1878 64.1886 71.1878V79.0932C66.4224 79.0932 68.8497 77.3591 68.8497 74.4927H60.9444ZM64.1886 71.1878H10.0608V79.0932H64.1886V71.1878ZM10.0608 71.1878C11.5115 71.1878 13.305 72.3414 13.305 74.4927H5.39961C5.39961 77.3596 7.82756 79.0932 10.0608 79.0932V71.1878ZM13.305 74.4927V72.4402H5.39961V74.4927H13.305ZM13.305 72.4402C13.305 74.5916 11.5115 75.7452 10.0608 75.7452V67.8398C7.82756 67.8398 5.39961 69.5734 5.39961 72.4402H13.305Z" fill="#E2E8F0" mask="url(#path-13-inside-6_39_230)"/>
<mask id="path-15-inside-7_39_230" fill="white">
<path d="M52.1053 83.2034H10.0608C9.66953 83.2034 9.35229 83.4934 9.35229 83.8511V85.9036C9.35229 86.2614 9.66953 86.5514 10.0608 86.5514H52.1053C52.4966 86.5514 52.8138 86.2614 52.8138 85.9036V83.8511C52.8138 83.4934 52.4966 83.2034 52.1053 83.2034Z"/>
</mask>
<path d="M52.1053 83.2034H10.0608C9.66953 83.2034 9.35229 83.4934 9.35229 83.8511V85.9036C9.35229 86.2614 9.66953 86.5514 10.0608 86.5514H52.1053C52.4966 86.5514 52.8138 86.2614 52.8138 85.9036V83.8511C52.8138 83.4934 52.4966 83.2034 52.1053 83.2034Z" fill="#2D3F81"/>
<path d="M10.0608 87.1561H52.1053V79.2507H10.0608V87.1561ZM52.1053 87.1561C50.6541 87.1561 48.8611 86.002 48.8611 83.8511H56.7664C56.7664 80.9848 54.3391 79.2507 52.1053 79.2507V87.1561ZM48.8611 83.8511V85.9036H56.7664V83.8511H48.8611ZM48.8611 85.9036C48.8611 83.7527 50.6541 82.5987 52.1053 82.5987V90.5041C54.3391 90.5041 56.7664 88.77 56.7664 85.9036H48.8611ZM52.1053 82.5987H10.0608V90.5041H52.1053V82.5987ZM10.0608 82.5987C11.5115 82.5987 13.305 83.7523 13.305 85.9036H5.39961C5.39961 88.7705 7.82756 90.5041 10.0608 90.5041V82.5987ZM13.305 85.9036V83.8511H5.39961V85.9036H13.305ZM13.305 83.8511C13.305 86.0025 11.5115 87.1561 10.0608 87.1561V79.2507C7.82756 79.2507 5.39961 80.9843 5.39961 83.8511H13.305Z" fill="#E2E8F0" mask="url(#path-15-inside-7_39_230)"/>
</svg>
