<svg width="100" height="84" viewBox="0 0 100 84" fill="none" xmlns="http://www.w3.org/2000/svg">
<path d="M94.3993 11.8991H72.5729V2.4003C72.5729 1.07469 71.4982 0 70.1726 0H29.8274C28.5018 0 27.4271 1.07469 27.4271 2.4003V11.8991H5.6007C2.51263 11.8991 0 14.4117 0 17.4998C0 20.1705 0 75.6222 0 78.2882C0 81.3762 2.51263 83.8889 5.6007 83.8889H94.3993C97.4874 83.8889 100 81.3762 100 78.2882C100 75.6245 100 20.1728 100 17.4998C100 14.4117 97.4874 11.8991 94.3993 11.8991ZM32.2277 4.8006H67.7723V11.8988H32.2277V4.8006ZM4.8006 17.4998C4.8006 17.0585 5.15968 16.6997 5.6007 16.6997H94.3993C94.8406 16.6997 95.1994 17.0585 95.1994 17.4998V45.4937H62.4014V40.8371C62.4014 39.5112 61.327 38.4368 60.0011 38.4368H39.9986C38.673 38.4368 37.5983 39.5112 37.5983 40.8371V45.4937H4.8006V17.4998ZM42.3989 47.894V43.2374H57.6008V47.894V52.5506H42.3989V47.894ZM95.1994 78.2882C95.1994 78.7295 94.8406 79.0883 94.3993 79.0883H5.6007C5.15968 79.0883 4.8006 78.7295 4.8006 78.2882V50.2943H37.5983V54.9509C37.5983 56.2768 38.673 57.3512 39.9986 57.3512H60.0011C61.327 57.3512 62.4014 56.2768 62.4014 54.9509V50.2943H95.1994V78.2882Z" fill="#E2E8F0"/>
</svg>
