<svg width="104" height="104" viewBox="0 0 104 104" fill="none" xmlns="http://www.w3.org/2000/svg">
<path d="M2.16556 21.342C2.78591 16.1336 5.26596 11.1515 9.0838 7.44405C11.2098 5.37948 13.7429 3.71778 16.4967 2.54645C20.1133 1.00807 25.6673 2.93184 28.4695 5.65304L40.356 17.1959C41.7922 18.5905 42.6763 20.4321 42.8528 22.397C43.0294 24.3619 42.4872 26.3243 41.3214 27.9395L36.071 35.2141C34.0978 37.948 33.3974 42.7376 34.9118 45.7328C37.6416 51.1318 41.3292 56.0749 45.7763 60.2621C51.6761 65.8169 58.9063 70.029 66.725 72.4826C67.7081 72.7911 69.1072 72.4355 69.8378 71.726L77.5676 64.2197C78.7253 63.0955 80.2955 62.4639 81.9328 62.4639C83.5701 62.4639 85.1403 63.0955 86.298 64.2197L100.207 77.7269C101.321 78.8086 101.963 80.2657 101.998 81.795C102.034 83.3243 101.461 84.8081 100.399 85.9377L88.0793 99.0365C86.4993 100.716 83.331 101.862 81.0235 101.469C73.8219 100.245 66.783 98.1183 60.1392 95.1545C45.0555 88.4256 32.2487 77.4969 21.7706 64.9951C14.9962 56.9123 9.07623 48.0594 5.18631 38.3465C3.0177 32.9317 1.47814 27.1135 2.16556 21.342Z" stroke="#E2E8F0" stroke-width="3"/>
</svg>
