<svg width="49" height="47" viewBox="0 0 49 47" fill="none" xmlns="http://www.w3.org/2000/svg">
<path fill-rule="evenodd" clip-rule="evenodd" d="M36.1847 0L36.179 6.44922e-05C29.4841 0.0761135 17.1755 0.0245697 12.7333 0.00596771L12.7333 0.00596753L12.7333 0.00596749C11.8793 0.00239133 11.316 3.26931e-05 11.1393 3.22461e-05C10.7533 3.12924e-05 10.4351 0.124084 10.1898 0.32846C9.95326 0.525467 9.81009 0.775175 9.72229 0.994595C9.63405 1.21509 9.59225 1.42853 9.57179 1.58197C9.56138 1.65998 9.55606 1.72582 9.55332 1.77367C9.55195 1.79767 9.55122 1.81737 9.55083 1.83206L9.55046 1.85032L9.5504 1.85651L9.55039 1.85885L9.55038 1.85983V1.86027C9.55038 1.86047 9.55038 1.86067 10.0504 1.86067H9.55038V12.2458H1.61118C1.21242 12.2458 0.840973 12.3244 0.549701 12.5633C0.256 12.8042 0.126752 13.1399 0.0648419 13.47C0.00379853 13.7955 -0.00324585 14.1799 0.00100781 14.5879C0.00274618 14.7546 0.00632454 14.9237 0.010057 15.1001C0.0159618 15.3791 0.0222523 15.6763 0.0222523 16.0113C0.0222525 17.1031 0.0903471 24.2505 0.15837 31.1194C0.192394 34.5551 0.226418 37.9227 0.251936 40.4314L0.28277 43.4514L0.291409 44.2929L0.293685 44.5141L0.294268 44.5708L0.294416 44.5851L0.294442 44.5876C0.295516 45.1198 0.596616 45.4983 0.89291 45.7323C1.18661 45.9643 1.52731 46.0997 1.76214 46.1584L1.82013 46.1729L1.8799 46.1733C8.41395 46.2186 18.2697 46.2731 26.6011 46.2889C30.7667 46.2969 34.5523 46.2952 37.3515 46.2779C38.7509 46.2692 39.9056 46.2567 40.7388 46.2394C41.1549 46.2308 41.4938 46.2209 41.7438 46.2097C41.8685 46.204 41.9747 46.1979 42.059 46.1911C42.1303 46.1853 42.2221 46.1766 42.295 46.1584C43.3461 45.8957 43.7304 45.1492 43.7607 44.6489C44.1184 43.0525 44.5758 41.0276 45.0593 38.8875L45.0627 38.8724C45.4989 36.9418 45.9561 34.9179 46.3802 33.0309C47.2752 29.0485 48.0316 25.6375 48.1134 25.0619C48.1593 24.7396 48.1285 24.4464 48.0099 24.1928C47.8903 23.9369 47.7017 23.7649 47.5077 23.6526C47.1754 23.4602 46.7847 23.4244 46.6149 23.4089L46.5788 23.4055L46.5542 23.403H46.5295H40.768V23.3878V23.3662V23.3446V23.3229V23.3012V23.2794V23.2575V23.2355V23.2135V23.1915V23.1693V23.1471V23.1248V23.1025V23.0801V23.0577V23.0352V23.0126V22.9899V22.9672V22.9445V22.9217V22.8988V22.8758V22.8529V22.8298V22.8067V22.7835V22.7603V22.737V22.7137V22.6903V22.6669V22.6434V22.6198V22.5962V22.5725V22.5488V22.5251V22.5013V22.4774V22.4535V22.4295V22.4055V22.3814V22.3573V22.3332V22.3089V22.2847V22.2604V22.236V22.2116V22.1872V22.1627V22.1382V22.1136V22.089V22.0643V22.0396V22.0148V21.99V21.9652V21.9403V21.9154V21.8904V21.8654V21.8404V21.8153V21.7902V21.7651V21.7399V21.7146V21.6894V21.6641V21.6387V21.6133V21.5879V21.5625V21.537V21.5115V21.4859V21.4604V21.4347V21.4091V21.3834V21.3577V21.332V21.3062V21.2804V21.2546V21.2287V21.2028V21.1769V21.1509V21.125V21.099V21.073V21.0469V21.0208V20.9947V20.9686V20.9424V20.9163V20.8901V20.8639V20.8376V20.8113V20.7851V20.7587V20.7324V20.7061V20.6797V20.6533V20.6269V20.6005V20.574V20.5476V20.5211V20.4946V20.4681V20.4416V20.415V20.3885V20.3619V20.3353V20.3087V20.2821V20.2555V20.2288V20.2022V20.1755V20.1488V20.1221V20.0954V20.0687V20.042V20.0153V19.9886V19.9618V19.9351V19.9083V19.8816V19.8548V19.828V19.8013V19.7745V19.7477V19.7209V19.6941V19.6673V19.6405V19.6137V19.5869V19.5601V19.5333V19.5065V19.4797V19.4529V19.4261V19.3993V19.3724V19.3456V19.3189V19.2921V19.2653V19.2385V19.2117V19.1849V19.1581V19.1314V19.1046V19.0779V19.0511V19.0244V18.9976V18.9709V18.9442V18.9175V18.8908V18.8641V18.8374V18.8108V18.7841V18.7575V18.7308V18.7042V18.6776V18.651V18.6245V18.5979V18.5713V18.5448V18.5183V18.4918V18.4653V18.4389V18.4124V18.386V18.3596V18.3332V18.3068V18.2804V18.2541V18.2278V18.2015V18.1752V18.149V18.1228V18.0966V18.0704V18.0442V18.0181V17.992V17.9659V17.9399V17.9138V17.8878V17.8618V17.8359V17.81V17.7841V17.7582V17.7324V17.7066V17.6808V17.655V17.6293V17.6036V17.578V17.5524V17.5268V17.5012V17.4757V17.4502V17.4248V17.3993V17.374V17.3486V17.3233V17.298V17.2728V17.2476V17.2224V17.1973V17.1722V17.1472V17.1222V17.0972V17.0723V17.0474V17.0225V16.9977V16.973V16.9483V16.9236V16.8989V16.8744V16.8498V16.8253V16.8009V16.7765V16.7521V16.7278V16.7035V16.6793V16.6551V16.631V16.6069V16.5829V16.5589V16.535V16.5111V16.4873V16.4635V16.4398V16.4161V16.3925V16.369V16.3455V16.322V16.2986V16.2753V16.252V16.2287V16.2056V16.1824V16.1594V16.1364V16.1134V16.0905V16.0677V16.0449V16.0222V15.9996V15.977V15.9545V15.932V15.9096V15.8872V15.865V15.8428V15.8206V15.7985V15.7765V15.7545V15.7326V15.7108V15.6891V15.6674V15.6457V15.6242V15.6027V15.5813V15.5599V15.5386V15.5174V15.4963V15.4752V15.4542V15.4333V15.4124V15.3916V15.3709V15.3503V15.3297V15.3092V15.2888V15.2685V15.2482V15.228V15.2079V15.1879V15.1679V15.1481V15.1283V15.1085V15.0889V15.0693V15.0499V15.0305V15.0111V14.9919V14.9727V14.9537V14.9347V14.9158V14.897V14.8782V14.8596V14.841V14.8225V14.8041V14.7858V14.7676V14.7494V14.7314V14.7134V14.6955V14.6777V14.66V14.6424V14.6249V14.6075V14.5902V14.5729V14.5558V14.5387V14.5217V14.5049V14.4881V14.4714V14.4548V14.4383V14.4219V14.4056V14.3894V14.3733V14.3573V14.3414V14.3255V14.3098V14.2942V14.2787V14.2633V14.2479V14.2327V14.2176V14.2026V14.1877V14.1729V14.1581V14.1435V14.129V14.1146V14.1004V14.0862V14.0721V14.0581V14.0442V14.0305V14.0168V14.0033V13.9898V13.9765V13.9633V13.9502V13.9372V13.9243V13.9115V13.8988V13.8863V13.8738V13.8615V13.8493V13.8372V13.8252V13.8133V13.8016V13.7899V13.7784V13.767V13.7557V13.7445V13.7334V13.7225V13.7117V13.7009V13.6904V13.6799V13.6695V13.6593V13.6492V13.6392V13.6294V13.6196V13.61V13.6005V13.5911V13.5819V13.5728V13.5638V13.5549V13.5462V13.5375V13.529V13.5207V13.5124V13.5043V13.4963V13.4885V13.4808V13.4732V13.4657V13.4584V13.4512V13.4441V13.4372V13.4304V13.4237V13.4172V13.4108V13.4045V13.3984V13.3924V13.3865V13.3808V13.3752V13.3697V13.3644V13.3592V13.3542V13.3493V13.3445V13.3399V13.3354V13.3311V13.3269V13.3228V13.3189V13.3151V13.3115V13.308V13.3046V13.3014V13.2984V13.2954V13.2927V13.29C40.768 12.9093 40.5981 12.6232 40.3559 12.4488C40.1392 12.2929 39.8943 12.2458 39.7235 12.2458H37.7736V12.2083V12.154V12.0996V12.0454V11.9911V11.9369V11.8828V11.8287V11.7746V11.7206V11.6666V11.6127V11.5589V11.5051V11.4513V11.3976V11.344V11.2904V11.2369V11.1834V11.13V11.0766V11.0233V10.9701V10.9169V10.8638V10.8107V10.7578V10.7048V10.652V10.5992V10.5465V10.4938V10.4413V10.3888V10.3363V10.284V10.2317V10.1795V10.1273V10.0753V10.0233V9.97138V9.91955V9.86781V9.81614V9.76456V9.71306V9.66164V9.61031V9.55906V9.5079V9.45682V9.40584V9.35494V9.30413V9.25341V9.20279V9.15226V9.10182V9.05147V9.00122V8.95107V8.90101V8.85105V8.8012V8.75144V8.70178V8.65222V8.60276V8.55341V8.50416V8.45502V8.40598V8.35705V8.30823V8.25952V8.21092V8.16242V8.11404V8.06577V8.01762V7.96958V7.92165V7.87384V7.82615V7.77857V7.73111V7.68378V7.63656V7.58946V7.54249V7.49564V7.44891V7.40231V7.35583V7.30949V7.26327V7.21717V7.17121V7.12538V7.07967V7.03411V6.98867V6.94337V6.8982V6.85317V6.80827V6.76351V6.71889V6.67442V6.63008V6.58588V6.54182V6.49791V6.45414V6.41051V6.36703V6.3237V6.28052V6.23748V6.19459V6.15185V6.10927V6.06683V6.02455V5.98242V5.94045V5.89863V5.85697V5.81547V5.77412V5.73294V5.69191V5.65105V5.61034V5.5698V5.52942V5.48921V5.44917V5.40928V5.36957V5.33003V5.29065V5.25144V5.21241V5.17355V5.13485V5.09634V5.05799V5.01983V4.98184V4.94402V4.90639V4.86893V4.83165V4.79455V4.75764V4.72091V4.68436V4.64799V4.61182V4.57582V4.54002V4.5044V4.46897V4.43373V4.39868V4.36383V4.32916V4.29469V4.26041V4.22633V4.19245V4.15876V4.12527V4.09197V4.05888V4.02599V3.9933V3.96081V3.92853V3.89645V3.86457V3.8329V3.80144V3.77018V3.73914V3.7083V3.67767V3.64726V3.61706V3.58707V3.55729V3.52773V3.49839V3.46926V3.44035V3.41166V3.38319V3.35494V3.32691V3.2991V3.27151V3.24415V3.21702V3.19011V3.16342V3.13697V3.11074V3.08474V3.05897V3.03343V3.00813V2.98306V2.95822V2.93362V2.90925V2.88512V2.86123V2.83757V2.81415V2.79098V2.76804V2.74535V2.7229V2.7007V2.67874V2.65702V2.63555V2.61433V2.59336V2.57263V2.55216V2.53193V2.51196V2.49224V2.47278V2.45357V2.43461V2.41592V2.39748V2.37929V2.36137V2.3437V2.3263V2.30916V2.29228V2.27567V2.25932V2.24323V2.22741V2.21186V2.19658V2.18156V2.16682V2.15235V2.13814V2.12421V2.11056V2.09718V2.08407V2.07124V2.05869V2.04641V2.03441V2.0227V2.01126V2.00011V1.98924V1.97865V1.96834V1.95833V1.94859V1.93915V1.92999V1.92112V1.91254V1.90425V1.89625V1.88855V1.88114V1.87402V1.8672V1.86067C37.7736 1.19536 37.5464 0.712395 37.1997 0.400447C36.869 0.102922 36.4724 3.09944e-05 36.1847 0ZM37.7736 13.2458V13.2482V13.3032V13.3583V13.4133V13.4684V13.5235V13.5787V13.6338V13.689V13.7442V13.7994V13.8546V13.9098V13.9651V14.0203V14.0756V14.1309V14.1862V14.2415V14.2968V14.3521V14.4074V14.4627V14.518V14.5734V14.6287V14.684V14.7394V14.7947V14.85V14.9054V14.9607V15.016V15.0714V15.1267V15.182V15.2373V15.2926V15.3479V15.4031V15.4584V15.5137V15.5689V15.6241V15.6793V15.7345V15.7897V15.8449V15.9V15.9551V16.0102V16.0653V16.1204V16.1754V16.2304V16.2854V16.3404V16.3953V16.4502V16.5051V16.56V16.6148V16.6696V16.7244V16.7791V16.8338V16.8884V16.9431V16.9977V17.0522V17.1067V17.1612V17.2156V17.27V17.3244V17.3787V17.433V17.4872V17.5414V17.5955V17.6496V17.7036V17.7576V17.8116V17.8654V17.9193V17.9731V18.0268V18.0805V18.1341V18.1877V18.2412V18.2946V18.348V18.4014V18.4546V18.5078V18.561V18.6141V18.6671V18.7201V18.7729V18.8258V18.8785V18.9312V18.9838V19.0364V19.0889V19.1413V19.1936V19.2459V19.298V19.3501V19.4022V19.4541V19.506V19.5578V19.6095V19.6611V19.7127V19.7642V19.8155V19.8668V19.9181V19.9692V20.0202V20.0712V20.122V20.1728V20.2235V20.2741V20.3246V20.375V20.4253V20.4755V20.5256V20.5756V20.6255V20.6754V20.7251V20.7747V20.8242V20.8736V20.9229V20.9722V21.0213V21.0702V21.1191V21.1679V21.2166V21.2651V21.3136V21.3619V21.4102V21.4583V21.5063V21.5541V21.6019V21.6495V21.6971V21.7445V21.7918V21.8389V21.886V21.9329V21.9797V22.0264V22.073V22.1194V22.1657V22.2118V22.2579V22.3038V22.3496V22.3952V22.4407V22.4861V22.5314V22.5765V22.6215V22.6663V22.711V22.7556V22.8V22.8443V22.8884V22.9324V22.9763V23.02V23.0636V23.107V23.1503V23.1934V23.2364V23.2792V23.3219V23.3644V23.403H39.768V23.3878V23.3662V23.3446V23.3229V23.3012V23.2794V23.2575V23.2355V23.2135V23.1915V23.1693V23.1471V23.1248V23.1025V23.0801V23.0577V23.0352V23.0126V22.9899V22.9672V22.9445V22.9217V22.8988V22.8758V22.8529V22.8298V22.8067V22.7835V22.7603V22.737V22.7137V22.6903V22.6669V22.6434V22.6198V22.5962V22.5725V22.5488V22.5251V22.5013V22.4774V22.4535V22.4295V22.4055V22.3814V22.3573V22.3332V22.3089V22.2847V22.2604V22.236V22.2116V22.1872V22.1627V22.1382V22.1136V22.089V22.0643V22.0396V22.0148V21.99V21.9652V21.9403V21.9154V21.8904V21.8654V21.8404V21.8153V21.7902V21.7651V21.7399V21.7146V21.6894V21.6641V21.6387V21.6133V21.5879V21.5625V21.537V21.5115V21.4859V21.4604V21.4347V21.4091V21.3834V21.3577V21.332V21.3062V21.2804V21.2546V21.2287V21.2028V21.1769V21.1509V21.125V21.099V21.073V21.0469V21.0208V20.9947V20.9686V20.9424V20.9163V20.8901V20.8639V20.8376V20.8113V20.7851V20.7587V20.7324V20.7061V20.6797V20.6533V20.6269V20.6005V20.574V20.5476V20.5211V20.4946V20.4681V20.4416V20.415V20.3885V20.3619V20.3353V20.3087V20.2821V20.2555V20.2288V20.2022V20.1755V20.1488V20.1221V20.0954V20.0687V20.042V20.0153V19.9886V19.9618V19.9351V19.9083V19.8816V19.8548V19.828V19.8013V19.7745V19.7477V19.7209V19.6941V19.6673V19.6405V19.6137V19.5869V19.5601V19.5333V19.5065V19.4797V19.4529V19.4261V19.3993V19.3724V19.3456V19.3189V19.2921V19.2653V19.2385V19.2117V19.1849V19.1581V19.1314V19.1046V19.0779V19.0511V19.0244V18.9976V18.9709V18.9442V18.9175V18.8908V18.8641V18.8374V18.8108V18.7841V18.7575V18.7308V18.7042V18.6776V18.651V18.6245V18.5979V18.5713V18.5448V18.5183V18.4918V18.4653V18.4389V18.4124V18.386V18.3596V18.3332V18.3068V18.2804V18.2541V18.2278V18.2015V18.1752V18.149V18.1228V18.0966V18.0704V18.0442V18.0181V17.992V17.9659V17.9399V17.9138V17.8878V17.8618V17.8359V17.81V17.7841V17.7582V17.7324V17.7066V17.6808V17.655V17.6293V17.6036V17.578V17.5524V17.5268V17.5012V17.4757V17.4502V17.4248V17.3993V17.374V17.3486V17.3233V17.298V17.2728V17.2476V17.2224V17.1973V17.1722V17.1472V17.1222V17.0972V17.0723V17.0474V17.0225V16.9977V16.973V16.9483V16.9236V16.8989V16.8744V16.8498V16.8253V16.8009V16.7765V16.7521V16.7278V16.7035V16.6793V16.6551V16.631V16.6069V16.5829V16.5589V16.535V16.5111V16.4873V16.4635V16.4398V16.4161V16.3925V16.369V16.3455V16.322V16.2986V16.2753V16.252V16.2287V16.2056V16.1824V16.1594V16.1364V16.1134V16.0905V16.0677V16.0449V16.0222V15.9996V15.977V15.9545V15.932V15.9096V15.8872V15.865V15.8428V15.8206V15.7985V15.7765V15.7545V15.7326V15.7108V15.6891V15.6674V15.6457V15.6242V15.6027V15.5813V15.5599V15.5386V15.5174V15.4963V15.4752V15.4542V15.4333V15.4124V15.3916V15.3709V15.3503V15.3297V15.3092V15.2888V15.2685V15.2482V15.228V15.2079V15.1879V15.1679V15.1481V15.1283V15.1085V15.0889V15.0693V15.0499V15.0305V15.0111V14.9919V14.9727V14.9537V14.9347V14.9158V14.897V14.8782V14.8596V14.841V14.8225V14.8041V14.7858V14.7676V14.7494V14.7314V14.7134V14.6955V14.6777V14.66V14.6424V14.6249V14.6075V14.5902V14.5729V14.5558V14.5387V14.5217V14.5049V14.4881V14.4714V14.4548V14.4383V14.4219V14.4056V14.3894V14.3733V14.3573V14.3414V14.3255V14.3098V14.2942V14.2787V14.2633V14.2479V14.2327V14.2176V14.2026V14.1877V14.1729V14.1581V14.1435V14.129V14.1146V14.1004V14.0862V14.0721V14.0581V14.0442V14.0305V14.0168V14.0033V13.9898V13.9765V13.9633V13.9502V13.9372V13.9243V13.9115V13.8988V13.8863V13.8738V13.8615V13.8493V13.8372V13.8252V13.8133V13.8016V13.7899V13.7784V13.767V13.7557V13.7445V13.7334V13.7225V13.7117V13.7009V13.6904V13.6799V13.6695V13.6593V13.6492V13.6392V13.6294V13.6196V13.61V13.6005V13.5911V13.5819V13.5728V13.5638V13.5549V13.5462V13.5375V13.529V13.5207V13.5124V13.5043V13.4963V13.4885V13.4808V13.4732V13.4657V13.4584V13.4512V13.4441V13.4372V13.4304V13.4237V13.4172V13.4108V13.4045V13.3984V13.3924V13.3865V13.3808V13.3752V13.3697V13.3644V13.3592V13.3542V13.3493V13.3445V13.3399V13.3354V13.3311V13.3269V13.3228V13.3189V13.3151V13.3115V13.308V13.3046V13.3014V13.2984V13.2954V13.2927V13.29C39.768 13.2737 39.7665 13.263 39.7654 13.2569C39.7614 13.255 39.7556 13.2526 39.7478 13.2504C39.7412 13.2485 39.7349 13.2472 39.7296 13.2465C39.7256 13.2459 39.7233 13.2458 39.723 13.2458H37.7736ZM1.29447 44.5848L1.29441 44.5796L0.794439 44.5848C1.29441 44.5796 1.29441 44.5795 1.29441 44.5793L1.2944 44.5784L1.29436 44.5748L1.29422 44.5605L1.29363 44.5038L1.29136 44.2827L1.28272 43.4412L1.26789 41.9893L1.27773 41.9919L5.90568 24.5757L5.92245 24.5126V24.477L5.92542 24.4741C5.93451 24.4657 6.00652 24.403 6.23915 24.403H6.2432H6.2477H6.25265H6.25805H6.26388H6.27017H6.27689H6.28406H6.29166H6.2997H6.30818H6.31709H6.32644H6.33622H6.34643H6.35707H6.36814H6.37964H6.39156H6.4039H6.41667H6.42987H6.44348H6.45751H6.47196H6.48682H6.5021H6.5178H6.53391H6.55042H6.56735H6.58469H6.60243H6.62058H6.63913H6.65809H6.67745H6.69721H6.71737H6.73792H6.75887H6.78022H6.80196H6.82409H6.84662H6.86953H6.89284H6.91653H6.9406H6.96506H6.9899H7.01513H7.04073H7.06672H7.09308H7.11982H7.14693H7.17442H7.20228H7.23051H7.25911H7.28807H7.31741H7.34711H7.37718H7.4076H7.43839H7.46954H7.50105H7.53292H7.56515H7.59772H7.63066H7.66394H7.69758H7.73156H7.76589H7.80057H7.8356H7.87097H7.90668H7.94274H7.97913H8.01587H8.05294H8.09035H8.12809H8.16617H8.20458H8.24332H8.28239H8.32178H8.36151H8.40156H8.44193H8.48263H8.52365H8.56499H8.60665H8.64862H8.69092H8.73352H8.77644H8.81968H8.86322H8.90707H8.95123H8.9957H9.04048H9.08555H9.13094H9.17662H9.2226H9.26888H9.31546H9.36234H9.40951H9.45697H9.50473H9.55277H9.60111H9.64974H9.69865H9.74784H9.79733H9.84709H9.89713H9.94746H9.99806H10.0489H10.1001H10.1515H10.2032H10.2552H10.3075H10.36H10.4128H10.4658H10.5192H10.5727H10.6266H10.6807H10.7351H10.7897H10.8446H10.8997H10.9551H11.0108H11.0667H11.1228H11.1792H11.2359H11.2927H11.3499H11.4073H11.4649H11.5228H11.5809H11.6392H11.6978H11.7566H11.8157H11.875H11.9345H11.9943H12.0542H12.1144H12.1749H12.2355H12.2964H12.3575H12.4189H12.4804H12.5422H12.6042H12.6664H12.7288H12.7914H12.8543H12.9173H12.9806H13.0441H13.1077H13.1716H13.2357H13.3H13.3645H13.4292H13.4941H13.5591H13.6244H13.6899H13.7556H13.8214H13.8875H13.9537H14.0202H14.0868H14.1536H14.2206H14.2877H14.3551H14.4226H14.4903H14.5582H14.6263H14.6945H14.7629H14.8315H14.9003H14.9692H15.0383H15.1075H15.1769H15.2465H15.3163H15.3862H15.4563H15.5265H15.5969H15.6674H15.7381H15.809H15.88H15.9511H16.0224H16.0939H16.1654H16.2372H16.3091H16.3811H16.4533H16.5256H16.598H16.6706H16.7433H16.8162H16.8892H16.9623H17.0355H17.1089H17.1824H17.256H17.3298H17.4037H17.4777H17.5518H17.6261H17.7004H17.7749H17.8495H17.9242H17.999H18.074H18.149H18.2242H18.2994H18.3748H18.4503H18.5259H18.6015H18.6773H18.7532H18.8292H18.9053H18.9814H19.0577H19.1341H19.2105H19.2871H19.3637H19.4404H19.5172H19.5941H19.6711H19.7481H19.8253H19.9025H19.9798H20.0572H20.1346H20.2121H20.2897H20.3674H20.4451H20.5229H20.6008H20.6788H20.7568H20.8348H20.913H20.9912H21.0694H21.1477H21.2261H21.3045H21.383H21.4615H21.5401H21.6188H21.6974H21.7762H21.8549H21.9338H22.0126H22.0915H22.1705H22.2495H22.3285H22.4076H22.4867H22.5658H22.645H22.7242H22.8034H22.8827H22.9619H23.0413H23.1206H23.2H23.2793H23.3587H23.4382H23.5176H23.5971H23.6765H23.756H23.8355H23.915H23.9946H24.0741H24.1536H24.2332H24.3127H24.3923H24.4718H24.5514H24.631H24.7105H24.7901H24.8696H24.9492H25.0287H25.1082H25.1877H25.2672H25.3467H25.4262H25.5057H25.5851H25.6645H25.744H25.8233H25.9027H25.9821H26.0614H26.1407H26.2199H26.2992H26.3784H26.4576H26.5367H26.6158H26.6949H26.7739H26.8529H26.9319H27.0108H27.0897H27.1685H27.2473H27.3261H27.4048H27.4834H27.562H27.6406H27.7191H27.7975H27.8759H27.9543H28.0325H28.1107H28.1889H28.267H28.345H28.423H28.5009H28.5787H28.6565H28.7342H28.8118H28.8893H28.9668H29.0442H29.1215H29.1988H29.2759H29.353H29.43H29.5069H29.5838H29.6605H29.7372H29.8138H29.8903H29.9666H30.0429H30.1191H30.1953H30.2713H30.3472H30.423H30.4987H30.5743H30.6498H30.7252H30.8005H30.8757H30.9508H31.0258H31.1007H31.1754H31.25H31.3246H31.399H31.4733H31.5474H31.6215H31.6954H31.7692H31.8429H31.9164H31.9898H32.0631H32.1363H32.2093H32.2822H32.355H32.4276H32.5001H32.5725H32.6447H32.7168H32.7887H32.8605H32.9321H33.0036H33.075H33.1462H33.2172H33.2881H33.3589H33.4295H33.4999H33.5702H33.6403H33.7103H33.7801H33.8497H33.9192H33.9885H34.0576H34.1266H34.1954H34.2641H34.3325H34.4008H34.469H34.5369H34.6047H34.6723H34.7397H34.8069H34.874H34.9408H35.0075H35.074H35.1403H35.2064H35.2723H35.3381H35.4036H35.469H35.5341H35.5991H35.6638H35.7284H35.7928H35.8569H35.9209H35.9846H36.0482H36.1115H36.1746H36.2375H36.3002H36.3627H36.425H36.4871H36.5489H36.6105H36.6719H36.7331L36.7736 24.403H37.2736H46.5047C46.6982 24.4224 46.8773 24.4431 47.0066 24.518C47.0592 24.5484 47.0869 24.5797 47.104 24.6163C47.1221 24.6551 47.1486 24.7436 47.1234 24.9212C47.049 25.4446 46.3081 28.7914 45.4046 32.8116C44.9814 34.6947 44.5244 36.7173 44.0883 38.6477L44.0881 38.6487C43.5982 40.8168 43.1347 42.8686 42.7748 44.4755L42.7627 44.5295V44.5848C42.7627 44.6306 42.6983 45.0239 42.06 45.1863L42.0566 45.1872H42.0565L42.0521 45.1871L42.0591 45.1863L1.29447 44.5848ZM1.29447 44.5848C1.29444 44.7042 1.35577 44.8236 1.51266 44.9475C1.65257 45.058 1.82591 45.1348 1.95291 45.1738C8.48625 45.219 18.3019 45.2731 26.603 45.2889C30.7678 45.2969 34.5502 45.2952 37.3454 45.2779C38.7432 45.2693 39.8923 45.2567 40.718 45.2396C41.1313 45.2311 41.4607 45.2214 41.6988 45.2107C41.8181 45.2053 41.9109 45.1998 41.9783 45.1943C42.0179 45.1911 42.041 45.1885 42.0521 45.1871L1.29447 44.5848ZM36.7736 23.403V23.3644V23.3219V23.2792V23.2364V23.1934V23.1503V23.107V23.0636V23.02V22.9763V22.9324V22.8884V22.8443V22.8V22.7556V22.711V22.6663V22.6215V22.5765V22.5314V22.4861V22.4407V22.3952V22.3496V22.3038V22.2579V22.2118V22.1657V22.1194V22.073V22.0264V21.9797V21.9329V21.886V21.8389V21.7918V21.7445V21.6971V21.6495V21.6019V21.5541V21.5063V21.4583V21.4102V21.3619V21.3136V21.2651V21.2166V21.1679V21.1191V21.0702V21.0213V20.9722V20.9229V20.8736V20.8242V20.7747V20.7251V20.6754V20.6255V20.5756V20.5256V20.4755V20.4253V20.375V20.3246V20.2741V20.2235V20.1728V20.122V20.0712V20.0202V19.9692V19.9181V19.8668V19.8155V19.7642V19.7127V19.6611V19.6095V19.5578V19.506V19.4541V19.4022V19.3501V19.298V19.2459V19.1936V19.1413V19.0889V19.0364V18.9838V18.9312V18.8785V18.8258V18.7729V18.7201V18.6671V18.6141V18.561V18.5078V18.4546V18.4014V18.348V18.2946V18.2412V18.1877V18.1341V18.0805V18.0268V17.9731V17.9193V17.8654V17.8116V17.7576V17.7036V17.6496V17.5955V17.5414V17.4872V17.433V17.3787V17.3244V17.27V17.2156V17.1612V17.1067V17.0522V16.9977V16.9431V16.8884V16.8338V16.7791V16.7244V16.6696V16.6148V16.56V16.5051V16.4502V16.3953V16.3404V16.2854V16.2304V16.1754V16.1204V16.0653V16.0102V15.9551V15.9V15.8449V15.7897V15.7345V15.6793V15.6241V15.5689V15.5137V15.4584V15.4031V15.3479V15.2926V15.2373V15.182V15.1267V15.0714V15.016V14.9607V14.9054V14.85V14.7947V14.7394V14.684V14.6287V14.5734V14.518V14.4627V14.4074V14.3521V14.2968V14.2415V14.1862V14.1309V14.0756V14.0203V13.9651V13.9098V13.8546V13.7994V13.7442V13.689V13.6338V13.5787V13.5235V13.4684V13.4133V13.3583V13.3032V13.2482V13.1932V13.1382V13.0833V13.0284V12.9735V12.9186V12.8638V12.8089V12.7542V12.6994V12.6447V12.59V12.5354V12.4808V12.4262V12.3717V12.3172V12.2628V12.2083V12.154V12.0996V12.0454V11.9911V11.9369V11.8828V11.8287V11.7746V11.7206V11.6666V11.6127V11.5589V11.5051V11.4513V11.3976V11.344V11.2904V11.2369V11.1834V11.13V11.0766V11.0233V10.9701V10.9169V10.8638V10.8107V10.7578V10.7048V10.652V10.5992V10.5465V10.4938V10.4413V10.3888V10.3363V10.284V10.2317V10.1795V10.1273V10.0753V10.0233V9.97138V9.91955V9.86781V9.81614V9.76456V9.71306V9.66164V9.61031V9.55906V9.5079V9.45682V9.40584V9.35494V9.30413V9.25341V9.20279V9.15226V9.10182V9.05147V9.00122V8.95107V8.90101V8.85105V8.8012V8.75144V8.70178V8.65222V8.60276V8.55341V8.50416V8.45502V8.40598V8.35705V8.30823V8.25952V8.21092V8.16242V8.11404V8.06577V8.01762V7.96958V7.92165V7.87384V7.82615V7.77857V7.73111V7.68378V7.63656V7.58946V7.54249V7.49564V7.44891V7.40231V7.35583V7.30949V7.26327V7.21717V7.17121V7.12538V7.07967V7.03411V6.98867V6.94337V6.8982V6.85317V6.80827V6.76351V6.71889V6.67442V6.63008V6.58588V6.54182V6.49791V6.45414V6.41051V6.36703V6.3237V6.28052V6.23748V6.19459V6.15185V6.10927V6.06683V6.02455V5.98242V5.94045V5.89863V5.85697V5.81547V5.77412V5.73294V5.69191V5.65105V5.61034V5.5698V5.52942V5.48921V5.44917V5.40928V5.36957V5.33003V5.29065V5.25144V5.21241V5.17355V5.13485V5.09634V5.05799V5.01983V4.98184V4.94402V4.90639V4.86893V4.83165V4.79455V4.75764V4.72091V4.68436V4.64799V4.61182V4.57582V4.54002V4.5044V4.46897V4.43373V4.39868V4.36383V4.32916V4.29469V4.26041V4.22633V4.19245V4.15876V4.12527V4.09197V4.05888V4.02599V3.9933V3.96081V3.92853V3.89645V3.86457V3.8329V3.80144V3.77018V3.73914V3.7083V3.67767V3.64726V3.61706V3.58707V3.55729V3.52773V3.49839V3.46926V3.44035V3.41166V3.38319V3.35494V3.32691V3.2991V3.27151V3.24415V3.21702V3.19011V3.16342V3.13697V3.11074V3.08474V3.05897V3.03343V3.00813V2.98306V2.95822V2.93362V2.90925V2.88512V2.86123V2.83757V2.81415V2.79098V2.76804V2.74535V2.7229V2.7007V2.67874V2.65702V2.63555V2.61433V2.59336V2.57263V2.55216V2.53193V2.51196V2.49224V2.47278V2.45357V2.43461V2.41592V2.39748V2.37929V2.36137V2.3437V2.3263V2.30916V2.29228V2.27567V2.25932V2.24323V2.22741V2.21186V2.19658V2.18156V2.16682V2.15235V2.13814V2.12421V2.11056V2.09718V2.08407V2.07124V2.05869V2.04641V2.03441V2.0227V2.01126V2.00011V1.98924V1.97865V1.96834V1.95833V1.94859V1.93915V1.92999V1.92112V1.91254V1.90425V1.89625V1.88855V1.88114V1.87402V1.8672V1.86067C36.7736 1.43747 36.6378 1.24011 36.5308 1.14387C36.409 1.03422 36.2626 1.00065 36.1868 1.00004C29.4782 1.07618 17.1404 1.02446 12.7149 1.00591C11.8695 1.00237 11.3128 1.00003 11.1393 1.00003C10.9809 1.00003 10.8907 1.04606 10.8298 1.0968C10.76 1.15491 10.699 1.24537 10.6507 1.36611C10.6028 1.48577 10.5766 1.6125 10.563 1.71418C10.5564 1.76372 10.5532 1.80419 10.5517 1.83074C10.5509 1.84394 10.5506 1.85348 10.5505 1.85873L10.5504 1.86282V12.7458L10.5505 12.7458V23.403H10.5727H10.6266H10.6807H10.7351H10.7897H10.8446H10.8997H10.9551H11.0108H11.0667H11.1228H11.1792H11.2359H11.2927H11.3499H11.4073H11.4649H11.5228H11.5809H11.6392H11.6978H11.7566H11.8157H11.875H11.9345H11.9943H12.0542H12.1144H12.1749H12.2355H12.2964H12.3575H12.4189H12.4804H12.5422H12.6042H12.6664H12.7288H12.7914H12.8543H12.9173H12.9806H13.0441H13.1077H13.1716H13.2357H13.3H13.3645H13.4292H13.4941H13.5591H13.6244H13.6899H13.7556H13.8214H13.8875H13.9537H14.0202H14.0868H14.1536H14.2206H14.2877H14.3551H14.4226H14.4903H14.5582H14.6263H14.6945H14.7629H14.8315H14.9003H14.9692H15.0383H15.1075H15.1769H15.2465H15.3163H15.3862H15.4563H15.5265H15.5969H15.6674H15.7381H15.809H15.88H15.9511H16.0224H16.0939H16.1654H16.2372H16.3091H16.3811H16.4533H16.5256H16.598H16.6706H16.7433H16.8162H16.8892H16.9623H17.0355H17.1089H17.1824H17.256H17.3298H17.4037H17.4777H17.5518H17.6261H17.7004H17.7749H17.8495H17.9242H17.999H18.074H18.149H18.2242H18.2994H18.3748H18.4503H18.5259H18.6015H18.6773H18.7532H18.8292H18.9053H18.9814H19.0577H19.1341H19.2105H19.2871H19.3637H19.4404H19.5172H19.5941H19.6711H19.7481H19.8253H19.9025H19.9798H20.0572H20.1346H20.2121H20.2897H20.3674H20.4451H20.5229H20.6008H20.6788H20.7568H20.8348H20.913H20.9912H21.0694H21.1477H21.2261H21.3045H21.383H21.4615H21.5401H21.6188H21.6974H21.7762H21.8549H21.9338H22.0126H22.0915H22.1705H22.2495H22.3285H22.4076H22.4867H22.5658H22.645H22.7242H22.8034H22.8827H22.9619H23.0413H23.1206H23.2H23.2793H23.3587H23.4382H23.5176H23.5971H23.6765H23.756H23.8355H23.915H23.9946H24.0741H24.1536H24.2332H24.3127H24.3923H24.4718H24.5514H24.631H24.7105H24.7901H24.8696H24.9492H25.0287H25.1082H25.1877H25.2672H25.3467H25.4262H25.5057H25.5851H25.6645H25.744H25.8233H25.9027H25.9821H26.0614H26.1407H26.2199H26.2992H26.3784H26.4576H26.5367H26.6158H26.6949H26.7739H26.8529H26.9319H27.0108H27.0897H27.1685H27.2473H27.3261H27.4048H27.4834H27.562H27.6406H27.7191H27.7975H27.8759H27.9543H28.0325H28.1107H28.1889H28.267H28.345H28.423H28.5009H28.5787H28.6565H28.7342H28.8118H28.8893H28.9668H29.0442H29.1215H29.1988H29.2759H29.353H29.43H29.5069H29.5838H29.6605H29.7372H29.8138H29.8903H29.9666H30.0429H30.1191H30.1953H30.2713H30.3472H30.423H30.4987H30.5743H30.6498H30.7252H30.8005H30.8757H30.9508H31.0258H31.1007H31.1754H31.25H31.3246H31.399H31.4733H31.5474H31.6215H31.6954H31.7692H31.8429H31.9164H31.9898H32.0631H32.1363H32.2093H32.2822H32.355H32.4276H32.5001H32.5725H32.6447H32.7168H32.7887H32.8605H32.9321H33.0036H33.075H33.1462H33.2172H33.2881H33.3589H33.4295H33.4999H33.5702H33.6403H33.7103H33.7801H33.8497H33.9192H33.9885H34.0576H34.1266H34.1954H34.2641H34.3325H34.4008H34.469H34.5369H34.6047H34.6723H34.7397H34.8069H34.874H34.9408H35.0075H35.074H35.1403H35.2064H35.2723H35.3381H35.4036H35.469H35.5341H35.5991H35.6638H35.7284H35.7928H35.8569H35.9209H35.9846H36.0482H36.1115H36.1746H36.2375H36.3002H36.3627H36.425H36.4871H36.5489H36.6105H36.6719H36.7331H36.7736ZM9.55049 23.403V13.2458H1.61118C1.32935 13.2458 1.22438 13.3033 1.18387 13.3365C1.14579 13.3677 1.08788 13.4402 1.0477 13.6544C1.00666 13.8732 0.996696 14.1691 1.00095 14.5774C1.00246 14.7216 1.00581 14.8826 1.00942 15.0559C1.01547 15.3465 1.02225 15.672 1.02225 16.0113C1.02225 17.0966 1.09025 24.2359 1.15832 31.1095C1.18339 33.6411 1.20846 36.1359 1.23013 38.2772L4.92636 24.3673C4.94636 24.1603 5.04423 23.9271 5.24616 23.7402C5.48208 23.5218 5.81842 23.403 6.23915 23.403H6.2432H6.2477H6.25265H6.25805H6.26388H6.27017H6.27689H6.28406H6.29166H6.2997H6.30818H6.31709H6.32644H6.33622H6.34643H6.35707H6.36814H6.37964H6.39156H6.4039H6.41667H6.42987H6.44348H6.45751H6.47196H6.48682H6.5021H6.5178H6.53391H6.55042H6.56735H6.58469H6.60243H6.62058H6.63913H6.65809H6.67745H6.69721H6.71737H6.73792H6.75887H6.78022H6.80196H6.82409H6.84662H6.86953H6.89284H6.91653H6.9406H6.96506H6.9899H7.01513H7.04073H7.06672H7.09308H7.11982H7.14693H7.17442H7.20228H7.23051H7.25911H7.28807H7.31741H7.34711H7.37718H7.4076H7.43839H7.46954H7.50105H7.53292H7.56515H7.59772H7.63066H7.66394H7.69758H7.73156H7.76589H7.80057H7.8356H7.87097H7.90668H7.94274H7.97913H8.01587H8.05294H8.09035H8.12809H8.16617H8.20458H8.24332H8.28239H8.32178H8.36151H8.40156H8.44193H8.48263H8.52365H8.56499H8.60665H8.64862H8.69092H8.73352H8.77644H8.81968H8.86322H8.90707H8.95123H8.9957H9.04048H9.08555H9.13094H9.17662H9.2226H9.26888H9.31546H9.36234H9.40951H9.45697H9.50473H9.55049ZM12.2284 4.08195C11.9522 4.08195 11.7284 4.30581 11.7284 4.58195C11.7284 4.85809 11.9522 5.08195 12.2284 5.08195H20.3945C20.6706 5.08195 20.8945 4.85809 20.8945 4.58195C20.8945 4.30581 20.6706 4.08195 20.3945 4.08195H12.2284ZM11.7284 7.57536C11.7284 7.29922 11.9522 7.07536 12.2284 7.07536H34.5514C34.8275 7.07536 35.0514 7.29922 35.0514 7.57536C35.0514 7.8515 34.8275 8.07536 34.5514 8.07536H12.2284C11.9522 8.07536 11.7284 7.8515 11.7284 7.57536ZM12.2284 10.3409C11.9522 10.3409 11.7284 10.5648 11.7284 10.8409C11.7284 11.117 11.9522 11.3409 12.2284 11.3409H34.5514C34.8275 11.3409 35.0514 11.117 35.0514 10.8409C35.0514 10.5648 34.8275 10.3409 34.5514 10.3409H12.2284ZM11.7284 14.1064C11.7284 13.8303 11.9522 13.6064 12.2284 13.6064H34.5514C34.8275 13.6064 35.0514 13.8303 35.0514 14.1064C35.0514 14.3826 34.8275 14.6064 34.5514 14.6064H12.2284C11.9522 14.6064 11.7284 14.3826 11.7284 14.1064ZM12.2284 16.872C11.9522 16.872 11.7284 17.0958 11.7284 17.372C11.7284 17.6481 11.9522 17.872 12.2284 17.872H34.5514C34.8275 17.872 35.0514 17.6481 35.0514 17.372C35.0514 17.0958 34.8275 16.872 34.5514 16.872H12.2284ZM11.7284 20.6375C11.7284 20.3614 11.9522 20.1375 12.2284 20.1375H34.5514C34.8275 20.1375 35.0514 20.3614 35.0514 20.6375C35.0514 20.9136 34.8275 21.1375 34.5514 21.1375H12.2284C11.9522 21.1375 11.7284 20.9136 11.7284 20.6375Z" fill="#38BDF8"/>
<path d="M22.0577 33.2039L22.9673 30.5558H23.5033L24.0534 32.4246H23.7694L25.5833 30.5558H26.1153L25.2137 33.2039H24.6057L25.2085 31.4373H25.3205L23.8739 32.924H23.5819L23.1365 31.4373H23.2725L22.6657 33.2039H22.0577ZM25.8435 33.9681C25.7315 33.9681 25.6265 33.9517 25.5284 33.9189C25.4304 33.8862 25.3566 33.8408 25.3072 33.7827L25.6794 33.3628C25.7136 33.4032 25.7574 33.4347 25.811 33.4574C25.8672 33.4801 25.9259 33.4915 25.9873 33.4915C26.0753 33.4915 26.1515 33.4713 26.2161 33.4309C26.2824 33.3931 26.3525 33.3288 26.4263 33.238L26.6241 32.9883L26.6942 32.924L28.0691 31.1687H28.6691L26.9551 33.3288C26.8295 33.4927 26.7053 33.6213 26.5826 33.7147C26.4625 33.808 26.3414 33.8735 26.219 33.9114C26.0994 33.9492 25.9742 33.9681 25.8435 33.9681ZM26.4467 33.2834L26.2131 31.1687H26.8571L27.0164 32.871L26.4467 33.2834ZM14.4412 37.9328L15.3508 35.2846H16.5628C16.8135 35.2846 17.0161 35.3237 17.1706 35.4019C17.3259 35.4776 17.4282 35.5873 17.4775 35.731C17.5268 35.8748 17.5172 36.0463 17.4488 36.2455C17.3812 36.4422 17.2734 36.6125 17.1254 36.7562C16.9773 36.9 16.7992 37.011 16.591 37.0891C16.3837 37.1648 16.1547 37.2026 15.904 37.2026H15.052L15.4349 36.9265L15.0892 37.9328H14.4412ZM15.4115 36.9946L15.2236 36.7033H16.0396C16.2396 36.7033 16.4027 36.6629 16.5291 36.5822C16.6555 36.5015 16.7434 36.3893 16.7928 36.2455C16.843 36.0992 16.8327 35.9857 16.7617 35.905C16.6908 35.8243 16.5553 35.784 16.3553 35.784H15.5393L15.9274 35.4927L15.4115 36.9946ZM18.2976 37.963C18.0682 37.963 17.8798 37.9176 17.7323 37.8268C17.5875 37.736 17.49 37.6125 17.4397 37.4561C17.3929 37.2972 17.4042 37.1169 17.4735 36.9151C17.5437 36.7108 17.6563 36.5305 17.8113 36.3741C17.9699 36.2153 18.1523 36.0917 18.3587 36.0034C18.5685 35.9126 18.7881 35.8672 19.0174 35.8672C19.2441 35.8672 19.4312 35.9126 19.5787 36.0034C19.727 36.0917 19.825 36.214 19.8726 36.3704C19.9202 36.5267 19.9085 36.7083 19.8375 36.9151C19.7682 37.1169 19.6556 37.2972 19.4997 37.4561C19.3446 37.6125 19.1622 37.736 18.9523 37.8268C18.7425 37.9176 18.5242 37.963 18.2976 37.963ZM18.4639 37.4788C18.5679 37.4788 18.669 37.4561 18.7673 37.4107C18.8655 37.3653 18.953 37.301 19.0296 37.2178C19.107 37.132 19.1657 37.0311 19.2055 36.9151C19.2462 36.7966 19.2569 36.6957 19.2375 36.6125C19.218 36.5292 19.1748 36.4649 19.1077 36.4195C19.0407 36.3741 18.9551 36.3514 18.8511 36.3514C18.7471 36.3514 18.646 36.3741 18.5477 36.4195C18.4495 36.4649 18.3607 36.5292 18.2815 36.6125C18.2049 36.6957 18.1462 36.7966 18.1055 36.9151C18.0657 37.0311 18.055 37.132 18.0736 37.2178C18.0956 37.301 18.1402 37.3653 18.2073 37.4107C18.2744 37.4561 18.3599 37.4788 18.4639 37.4788ZM19.9051 37.9328L20.6041 35.8975H21.2001L21.0026 36.4725L20.9758 36.306C21.0892 36.1623 21.2291 36.0538 21.3956 35.9807C21.5629 35.905 21.7479 35.8672 21.9505 35.8672L21.7634 36.412C21.7376 36.4094 21.7141 36.4082 21.6927 36.4082C21.6723 36.4057 21.65 36.4044 21.626 36.4044C21.4554 36.4044 21.3007 36.4511 21.1619 36.5444C21.0268 36.6352 20.9258 36.7777 20.8591 36.9719L20.5291 37.9328H19.9051ZM22.5559 37.963C22.3026 37.963 22.126 37.9025 22.0263 37.7814C21.9274 37.6579 21.9195 37.475 22.0027 37.2329L22.616 35.4473H23.24L22.6293 37.2253C22.5998 37.3111 22.6009 37.3779 22.6324 37.4258C22.6648 37.4712 22.7224 37.4939 22.805 37.4939C22.9037 37.4939 22.9964 37.4687 23.083 37.4183L23.1081 37.8344C23.0294 37.8773 22.9408 37.9101 22.8423 37.9328C22.7474 37.9529 22.6519 37.963 22.5559 37.963ZM21.9579 36.3968L22.1138 35.9429H23.6058L23.4499 36.3968H21.9579ZM23.5006 37.9328L24.2153 35.8521C24.2941 35.6226 24.4289 35.4397 24.6197 35.3035C24.8113 35.1648 25.0405 35.0955 25.3072 35.0955C25.3978 35.0955 25.4815 35.1043 25.5581 35.1219C25.6373 35.1396 25.6998 35.1673 25.7455 35.2052L25.4346 35.6327C25.4078 35.61 25.3752 35.5923 25.3368 35.5797C25.2985 35.5671 25.2553 35.5608 25.2073 35.5608C25.1167 35.5608 25.0373 35.586 24.9693 35.6364C24.9049 35.6844 24.8558 35.7575 24.822 35.8559L24.757 36.045L24.6859 36.2985L24.1246 37.9328H23.5006ZM23.6962 36.3968L23.8521 35.9429H25.3441L25.1882 36.3968H23.6962ZM25.9577 37.963C25.7284 37.963 25.54 37.9176 25.3925 37.8268C25.2477 37.736 25.1501 37.6125 25.0998 37.4561C25.0531 37.2972 25.0644 37.1169 25.1337 36.9151C25.2038 36.7108 25.3164 36.5305 25.4715 36.3741C25.6301 36.2153 25.8125 36.0917 26.0188 36.0034C26.2287 35.9126 26.4483 35.8672 26.6776 35.8672C26.9043 35.8672 27.0913 35.9126 27.2388 36.0034C27.3872 36.0917 27.4852 36.214 27.5328 36.3704C27.5804 36.5267 27.5687 36.7083 27.4977 36.9151C27.4284 37.1169 27.3158 37.2972 27.1598 37.4561C27.0048 37.6125 26.8224 37.736 26.6125 37.8268C26.4027 37.9176 26.1844 37.963 25.9577 37.963ZM26.1241 37.4788C26.2281 37.4788 26.3292 37.4561 26.4274 37.4107C26.5257 37.3653 26.6131 37.301 26.6897 37.2178C26.7672 37.132 26.8258 37.0311 26.8657 36.9151C26.9064 36.7966 26.917 36.6957 26.8976 36.6125C26.8782 36.5292 26.835 36.4649 26.7679 36.4195C26.7008 36.3741 26.6153 36.3514 26.5113 36.3514C26.4073 36.3514 26.3061 36.3741 26.2079 36.4195C26.1096 36.4649 26.0209 36.5292 25.9416 36.6125C25.865 36.6957 25.8064 36.7966 25.7657 36.9151C25.7258 37.0311 25.7152 37.132 25.7337 37.2178C25.7558 37.301 25.8004 37.3653 25.8674 37.4107C25.9345 37.4561 26.0201 37.4788 26.1241 37.4788ZM27.5652 37.9328L28.5294 35.1257H29.1534L28.1892 37.9328H27.5652ZM28.7683 37.9328L29.4674 35.8975H30.0914L29.3923 37.9328H28.7683ZM29.8769 35.6137C29.7622 35.6137 29.6797 35.5822 29.6294 35.5192C29.579 35.4561 29.5699 35.3779 29.6019 35.2846C29.634 35.1913 29.6968 35.1131 29.7905 35.0501C29.8842 34.987 29.9883 34.9555 30.103 34.9555C30.2176 34.9555 30.3006 34.9858 30.3518 35.0463C30.4039 35.1043 30.4139 35.18 30.3818 35.2733C30.348 35.3716 30.2839 35.4536 30.1894 35.5192C30.0984 35.5822 29.9942 35.6137 29.8769 35.6137ZM30.9851 37.963C30.7557 37.963 30.5673 37.9176 30.4198 37.8268C30.275 37.736 30.1775 37.6125 30.1272 37.4561C30.0804 37.2972 30.0917 37.1169 30.161 36.9151C30.2312 36.7108 30.3438 36.5305 30.4988 36.3741C30.6574 36.2153 30.8398 36.0917 31.0462 36.0034C31.256 35.9126 31.4756 35.8672 31.7049 35.8672C31.9316 35.8672 32.1187 35.9126 32.2662 36.0034C32.4145 36.0917 32.5125 36.214 32.5601 36.3704C32.6077 36.5267 32.596 36.7083 32.525 36.9151C32.4557 37.1169 32.3431 37.2972 32.1872 37.4561C32.0321 37.6125 31.8497 37.736 31.6398 37.8268C31.43 37.9176 31.2117 37.963 30.9851 37.963ZM31.1514 37.4788C31.2554 37.4788 31.3565 37.4561 31.4548 37.4107C31.553 37.3653 31.6405 37.301 31.7171 37.2178C31.7945 37.132 31.8532 37.0311 31.893 36.9151C31.9337 36.7966 31.9444 36.6957 31.925 36.6125C31.9055 36.5292 31.8623 36.4649 31.7952 36.4195C31.7282 36.3741 31.6426 36.3514 31.5386 36.3514C31.4346 36.3514 31.3335 36.3741 31.2352 36.4195C31.137 36.4649 31.0482 36.5292 30.969 36.6125C30.8924 36.6957 30.8337 36.7966 30.793 36.9151C30.7532 37.0311 30.7425 37.132 30.7611 37.2178C30.7831 37.301 30.8277 37.3653 30.8948 37.4107C30.9619 37.4561 31.0474 37.4788 31.1514 37.4788Z" fill="#E2E8F0"/>
</svg>
