<svg width="1276" height="159" viewBox="0 0 1276 159" fill="none" xmlns="http://www.w3.org/2000/svg">
<path d="M1 1.10488C71.7783 50.7912 142.557 100.476 213.333 87.2262C284.111 73.9777 354.889 -2.20826 425.667 1.10488C496.443 4.41667 567.222 87.2262 638 87.2262C708.778 87.2262 779.557 4.41667 850.333 1.10488C921.111 -2.20826 991.889 73.9777 1062.67 87.2262C1133.44 100.476 1204.22 50.7912 1275 1.10488" stroke="#0F172A" stroke-opacity="0.8" stroke-width="2"/>
<path d="M1 138.9C71.7783 91.698 142.557 44.4969 213.333 57.0841C284.111 69.6714 354.889 142.047 425.667 138.9C496.443 135.754 567.222 57.0841 638 57.0841C708.778 57.0841 779.557 135.754 850.333 138.9C921.111 142.047 991.889 69.6714 1062.67 57.0841C1133.44 44.4969 1204.22 91.698 1275 138.9" stroke="#0F172A" stroke-opacity="0.8" stroke-width="2"/>
<path d="M1 20.1049C71.7783 69.7912 142.557 119.476 213.333 106.226C284.111 92.9777 354.889 16.7917 425.667 20.1049C496.443 23.4167 567.222 106.226 638 106.226C708.778 106.226 779.557 23.4167 850.333 20.1049C921.111 16.7917 991.889 92.9777 1062.67 106.226C1133.44 119.476 1204.22 69.7912 1275 20.1049" stroke="#0F172A" stroke-opacity="0.8" stroke-width="2"/>
<path d="M1 157.9C71.7783 110.698 142.557 63.4969 213.333 76.0841C284.111 88.6714 354.889 161.047 425.667 157.9C496.443 154.754 567.222 76.0841 638 76.0841C708.778 76.0841 779.557 154.754 850.333 157.9C921.111 161.047 991.889 88.6714 1062.67 76.0841C1133.44 63.4969 1204.22 110.698 1275 157.9" stroke="#0F172A" stroke-opacity="0.8" stroke-width="2"/>
</svg>
